<?xml version="1.0" standalone="no"?><!DOCTYPE svg PUBLIC "-//W3C//DTD SVG 1.1//EN" "http://www.w3.org/Graphics/SVG/1.1/DTD/svg11.dtd"><svg t="1629942528286" class="icon" viewBox="0 0 2027 1024" version="1.1" xmlns="http://www.w3.org/2000/svg" p-id="1219" width="95.015625" height="48" xmlns:xlink="http://www.w3.org/1999/xlink"><defs><style type="text/css"></style></defs><path d="M331.212057 186.727872v816.913383h1334.853313v-821.124277z" fill="#d81e06" opacity=".2" p-id="1220"></path><path d="M327.211708 1007.852149V11.323093H2.017018C-1.448547 3.874022-0.859022-0.084218 7.49118 0.218966c2.947626 0.105272 5.895251 0 8.842877 0 98.602288 0 197.221419 0.261075 295.84055-0.197912 22.907262-0.101061 25.728561 2.665496 25.686451 26.330719q-0.37898 476.289979-0.168435 952.579958v18.414238h1320.915254V22.444064c0-21.429238 0.757961-22.225097 21.686103-22.225098q151.718501 0 303.437002 0.096851c5.684707 0 14.990782-3.078163 11.453631 10.236683h-325.123105v191.81042l0.252653 10.08509v456.170329l-0.294762 10.918848v328.314962H327.211708z m888.498577-455.083918h-371.906134a36.849531 36.849531 0 0 1-10.064036-0.311606 17.791026 17.791026 0 0 1-5.516271-5.187821 21.425027 21.425027 0 0 1 5.516271-5.200454 20.481787 20.481787 0 0 1 7.495391-0.256865q181.405302 0 362.768495 0.105273c5.684707 0 15.117108-3.385559 11.706284 10.851473z m-748.739014 304.9824h392.371078l2.400209 2.897095c-2.652863 2.366522-5.221508 4.791997-7.958589 7.032192a4.85516 4.85516 0 0 1-2.484427 0.080007q-187.658479 0-375.316958 0.042109c-6.442667 0.004211-12.29581 0.016844-9.011313-10.051403z m671.25857-20.393358h352.788676c2.652863 6.573205 2.021229 10.337744-6.232122 10.240893-16.885684-0.197912-33.729259-0.04632-50.572834-0.04632q-142.24399 0-284.487981-0.092639c-5.726815-0.004211-14.906564 2.96868-11.495739-10.101934z m305.374013-133.649556c3.368715 10.60303-3.15817 9.946131-9.348184 9.94192q-57.541863-0.063163-115.041617 0h-204.775762c-6.105796 0-13.685405 1.339064-9.979818-9.904022h339.145381z m-486.779315-17.399413a48.475809 48.475809 0 0 1-7.242737 6.884811 13.352744 13.352744 0 0 1-6.232123 0.218966q-152.223808 0-304.447617-0.042109c-5.811033 0-14.064385 2.235985-10.737779-9.727164h326.344264c0.757961 0.888499 1.558031 1.776997 2.315992 2.665496z m-583.798307-156.973697h312.069334c0.757961 1.048513 1.473813 2.105447 2.231774 3.132905a31.160614 31.160614 0 0 1-8.33757 6.535307 37.131661 37.131661 0 0 1-11.285195 0.273708q-141.991337 0-283.982673-0.042109c-5.853142-0.004211-14.022276 2.227563-10.69567-9.899811z m964.042011 18.709001c2.989735-2.075971 6.021578-5.945782 9.011312-5.962625q102.745807-0.513729 205.575832-0.033688c2.610754 0 5.221508 3.4403 7.832262 5.27625-2.231774 1.802263-4.463547 5.170978-6.73743 5.1794-70.995668 0.273708-141.991337 0.227388-212.944896 0.227388-0.926397-1.562242-1.852793-3.124483-2.73708-4.686725zM334.707099 180.045183v10.371431q664.415867 0.261075 1328.747517 0.160014v-10.527234H334.707099z" fill="#d81e06" p-id="1221"></path></svg>